<svg xmlns="http://www.w3.org/2000/svg" fill="none" viewBox="0 0 28 28" height="28" width="28">
  <g transform="matrix(0.62624337,0,0,0.58706846,5.2325928,5.4521188)" fill="#616161" class="jp-icon3">
    <rect transform="matrix(0.27021647,0,0,1.1359728,1.7476977,-0.79510944)" y="5.0442429" x="4.392499" height="2.200757" width="19.215002" stroke-width="0.79880279"/>
    <path stroke-width="0.81105113" d="m 2.9346233,6.924827 v 17.26072 h 2.5 V 6.924827 Z"/>
    <path stroke-width="0.81105113" d="M 22.597275,6.9248275 V 24.185547 h 2.500001 V 6.9248275 Z"/>
    <rect transform="matrix(0.27021647,0,0,1.1359728,18.718141,-0.79510944)" y="5.0442429" x="4.392499" height="2.200757" width="19.215002" stroke-width="0.79880279"/>
    <rect transform="matrix(0.27021647,0,0,1.1359728,1.7476977,15.955424)" y="5.0442429" x="4.392499" height="2.200757" width="19.215002" stroke-width="0.79880279"/>
    <rect transform="matrix(0.27021647,0,0,1.1359728,18.718141,15.955424)" y="5.0442429" x="4.392499" height="2.200757" width="19.215002" stroke-width="0.79880279"/>
    <path stroke-width="0.68351513" d="m 10.179567,10.180007 v 12.259105 h 2.500001 V 10.180007 Z"/>
    <path stroke-width="0.68351513" d="M 15.320433,6.6814485 V 18.940554 h 2.500001 V 6.6814485 Z"/>
    <path d="M 11.429568,6.6814492 8.0469782,10.289757 h 6.7651788 z"/>
    <path d="m 16.570433,22.439111 -3.382589,-3.608307 h 6.765178 z"/>
  </g>
</svg>
