<svg xmlns="http://www.w3.org/2000/svg" fill="none" viewBox="0 0 14 14" height="14" width="14">
  <g transform="matrix(0.62624337,0,0,0.58706846,-1.7773957,-1.5478812)" fill="#616161" class="jp-icon3">
    <rect transform="matrix(0.27021647,0,0,1.1359728,1.7476977,-0.79510944)" y="5.0442429" x="4.392499" height="2.200757" width="19.215002" stroke-width="0.79880279"/>
    <path stroke-width="0.81105113" d="m 2.9346233,6.924827 v 17.26072 h 2.5 V 6.924827 Z"/>
    <path stroke-width="0.81105113" d="M 22.597275,6.9248275 V 24.185547 h 2.500001 V 6.9248275 Z"/>
    <rect transform="matrix(0.27021647,0,0,1.1359728,18.718141,-0.79510944)" y="5.0442429" x="4.392499" height="2.200757" width="19.215002" stroke-width="0.79880279"/>
    <rect transform="matrix(0.27021647,0,0,1.1359728,1.7476977,15.955424)" y="5.0442429" x="4.392499" height="2.200757" width="19.215002" stroke-width="0.79880279"/>
    <rect transform="matrix(0.27021647,0,0,1.1359728,18.718141,15.955424)" y="5.0442429" x="4.392499" height="2.200757" width="19.215002" stroke-width="0.79880279"/>
    <text transform="scale(0.96821721,1.0328261)" y="22.589752" x="8.9420986" font-size="22px" stroke-width="1.64924073" font-family="sans-serif">
      ?
    </text>
  </g>
</svg>
