<svg xmlns="http://www.w3.org/2000/svg" fill="none" viewBox="0 0 14 14" height="14" width="14">
  <g transform="matrix(0.62624337,0,0,0.58706846,-1.7773956,-0.3968846)" fill="#616161" class="jp-icon3">
    <rect transform="matrix(0.27021647,0,0,1.1359728,4.2715243,2.6116483)" y="5.0442429" x="4.392499" height="2.200757" width="19.215002" stroke-width="0.79880279"/>
    <path d="m 5.4584499,10.0687 v 14.116847 h 2.5 V 10.0687 Z" stroke-width="0.7334789"/>
    <path d="m 20.073448,10.0687 v 14.116847 h 2.500001 V 10.0687 Z" stroke-width="0.7334789"/>
    <rect transform="matrix(0.27021647,0,0,1.1359728,16.194314,2.6116483)" y="5.0442429" x="4.392499" height="2.200757" width="19.215002" stroke-width="0.79880279"/>
    <rect transform="matrix(0.87328074,0,0,1.1359728,1.6440535,15.955424)" y="5.0442429" x="4.392499" height="2.200757" width="19.215002" stroke-width="0.79880279"/>
    <path d="m 12.143564,1.0138466 v 4.1850681 h 3.712872 V 1.0138466 Z" stroke-width="0.48669285"/>
    <path d="M 14,8.6974717 8.9763532,5.0891647 H 19.023647 Z"/>
    <rect transform="matrix(0.29461795,0,0,0.61650316,7.5139397,12.068671)" y="5.0442429" x="4.392499" height="2.200757" width="19.215002" stroke-width="0.79880279"/>
    <rect transform="matrix(0.29461795,0,0,0.61650316,7.5139397,14.112787)" y="5.0442429" x="4.392499" height="2.200757" width="19.215002" stroke-width="0.79880279"/>
    <rect transform="matrix(0.29461795,0,0,0.61650316,7.5139397,16.256337)" y="5.0442429" x="4.392499" height="2.200757" width="19.215002" stroke-width="0.79880279"/>
  </g>
</svg>
