<svg xmlns="http://www.w3.org/2000/svg" width="20" viewBox="0 0 30 16" height="16">
  <g transform="translate(2.0365779)">
    <path transform="translate(0,-4)" fill="#616161" class="jp-icon3" d="M 12,2 C 6.47,2 2,6.47 2,12 2,17.53 6.47,22 12,22 17.53,22 22,17.53 22,12 22,6.47 17.53,2 12,2 Z m 0,18 C 7.59,20 4,16.41 4,12 4,7.59 7.59,4 12,4 c 4.41,0 8,3.59 8,8 0,4.41 -3.59,8 -8,8 z" />
    <path stroke="#616161" class="jp-icon3" d="M 6.0655869,7.1523533 11.451315,11.83538 23.069098,-1.2298715" stroke-width="2.2956202" style="fill:none;"/>
  </g>
  <text x="19.525425" y="26.101696" font-family="sans-serif" stroke-width="1.5" font-size="22px" fill="#d70000">
   *
  </text>
</svg>