<?xml version="1.0" encoding="UTF-8" standalone="no"?>
<svg
   xmlns:dc="http://purl.org/dc/elements/1.1/"
   xmlns:cc="http://creativecommons.org/ns#"
   xmlns:rdf="http://www.w3.org/1999/02/22-rdf-syntax-ns#"
   xmlns:svg="http://www.w3.org/2000/svg"
   xmlns="http://www.w3.org/2000/svg"
   xmlns:sodipodi="http://sodipodi.sourceforge.net/DTD/sodipodi-0.dtd"
   xmlns:inkscape="http://www.inkscape.org/namespaces/inkscape"
   width="20"
   viewBox="0 0 30 16"
   data-icon="ui-components:circle-empty"
   data-icon-id="8e44c514-da33-4ce6-befd-94d4804f7ca9"
   version="1.1"
   id="svg2695"
   sodipodi:docname="julynter.svg"
   height="16"
   inkscape:version="0.92.3 (2405546, 2018-03-11)">
  <metadata
     id="metadata2701">
    <rdf:RDF>
      <cc:Work
         rdf:about="">
        <dc:format>image/svg+xml</dc:format>
        <dc:type
           rdf:resource="http://purl.org/dc/dcmitype/StillImage" />
        <dc:title></dc:title>
      </cc:Work>
    </rdf:RDF>
  </metadata>
  <defs
     id="defs2699" />
  <sodipodi:namedview
     pagecolor="#ffffff"
     bordercolor="#666666"
     borderopacity="1"
     objecttolerance="10"
     gridtolerance="10"
     guidetolerance="10"
     inkscape:pageopacity="0"
     inkscape:pageshadow="2"
     inkscape:window-width="1540"
     inkscape:window-height="1906"
     id="namedview2697"
     showgrid="false"
     inkscape:zoom="9.8333335"
     inkscape:cx="1.0246251"
     inkscape:cy="-6.2902323"
     inkscape:window-x="2011"
     inkscape:window-y="119"
     inkscape:window-maximized="0"
     inkscape:current-layer="svg2695" />
  <g
     id="g1457"
     transform="translate(2.0365779)">
    <g
       transform="translate(0,-4)"
       style="fill:#616161"
       id="g2693"
       class="jp-icon3">
      <path
         inkscape:connector-curvature="0"
         id="path2691"
         d="M 12,2 C 6.47,2 2,6.47 2,12 2,17.53 6.47,22 12,22 17.53,22 22,17.53 22,12 22,6.47 17.53,2 12,2 Z m 0,18 C 7.59,20 4,16.41 4,12 4,7.59 7.59,4 12,4 c 4.41,0 8,3.59 8,8 0,4.41 -3.59,8 -8,8 z" />
    </g>
    <path
       inkscape:connector-curvature="0"
       id="path818"
       d="M 6.0655869,7.1523533 11.451315,11.83538 23.069098,-1.2298715"
       style="fill:none;stroke:#616161;stroke-width:2.2956202;stroke-linecap:butt;stroke-linejoin:miter;stroke-miterlimit:4;stroke-dasharray:none;stroke-opacity:1" />
  </g>
</svg>
