<?xml version="1.0" encoding="UTF-8" standalone="no"?>
<svg
   xmlns:dc="http://purl.org/dc/elements/1.1/"
   xmlns:cc="http://creativecommons.org/ns#"
   xmlns:rdf="http://www.w3.org/1999/02/22-rdf-syntax-ns#"
   xmlns:svg="http://www.w3.org/2000/svg"
   xmlns="http://www.w3.org/2000/svg"
   xmlns:sodipodi="http://sodipodi.sourceforge.net/DTD/sodipodi-0.dtd"
   xmlns:inkscape="http://www.inkscape.org/namespaces/inkscape"
   width="16"
   viewBox="0 0 24 16"
   data-icon="ui-components:circle-empty"
   data-icon-id="8e44c514-da33-4ce6-befd-94d4804f7ca9"
   version="1.1"
   id="svg6"
   sodipodi:docname="kerneloff_darktheme.svg"
   inkscape:version="0.92.3 (2405546, 2018-03-11)"
   height="16">
  <metadata
     id="metadata12">
    <rdf:RDF>
      <cc:Work
         rdf:about="">
        <dc:format>image/svg+xml</dc:format>
        <dc:type
           rdf:resource="http://purl.org/dc/dcmitype/StillImage" />
        <dc:title></dc:title>
      </cc:Work>
    </rdf:RDF>
  </metadata>
  <defs
     id="defs10">
    <marker
       inkscape:stockid="Arrow1Lstart"
       orient="auto"
       refY="0"
       refX="0"
       id="marker1123"
       style="overflow:visible"
       inkscape:isstock="true">
      <path
         id="path1121"
         d="M 0,0 5,-5 -12.5,0 5,5 Z"
         style="fill:#616161;fill-opacity:1;fill-rule:evenodd;stroke:#dcdbdc;stroke-width:1.00000003pt;stroke-opacity:1"
         transform="matrix(0.8,0,0,0.8,10,0)"
         inkscape:connector-curvature="0" />
    </marker>
    <marker
       inkscape:stockid="Arrow1Lstart"
       orient="auto"
       refY="0"
       refX="0"
       id="Arrow1Lstart"
       style="overflow:visible"
       inkscape:isstock="true">
      <path
         id="path845"
         d="M 0,0 5,-5 -12.5,0 5,5 Z"
         style="fill:#616161;fill-opacity:1;fill-rule:evenodd;stroke:#616161;stroke-width:1.00000003pt;stroke-opacity:1"
         transform="matrix(0.8,0,0,0.8,10,0)"
         inkscape:connector-curvature="0" />
    </marker>
  </defs>
  <sodipodi:namedview
     pagecolor="#ffffff"
     bordercolor="#666666"
     borderopacity="1"
     objecttolerance="10"
     gridtolerance="10"
     guidetolerance="10"
     inkscape:pageopacity="0"
     inkscape:pageshadow="2"
     inkscape:window-width="1901"
     inkscape:window-height="1420"
     id="namedview8"
     showgrid="false"
     inkscape:zoom="19.666667"
     inkscape:cx="-1.9811376"
     inkscape:cy="8.7506687"
     inkscape:window-x="661"
     inkscape:window-y="282"
     inkscape:window-maximized="0"
     inkscape:current-layer="svg6"
     showguides="false"
     fit-margin-top="0"
     fit-margin-left="0"
     fit-margin-right="0"
     fit-margin-bottom="0" />
  <g
     id="g2055"
     transform="translate(-0.0928204,-9.9831175)">
    <g
       transform="translate(0,6)"
       style="fill:#dcdbdc;fill-opacity:1"
       id="g4"
       class="jp-icon3">
      <path
         inkscape:connector-curvature="0"
         style="fill:#dcdbdc;fill-opacity:1"
         id="path2"
         d="M 12,2 C 6.47,2 2,6.47 2,12 2,17.53 6.47,22 12,22 17.53,22 22,17.53 22,12 22,6.47 17.53,2 12,2 Z m 0,18 C 7.59,20 4,16.41 4,12 4,7.59 7.59,4 12,4 c 4.41,0 8,3.59 8,8 0,4.41 -3.59,8 -8,8 z" />
    </g>
    <path
       inkscape:connector-curvature="0"
       id="path843"
       d="M 21.821234,8.656249 2.3644068,27.309986"
       style="fill:#616161;fill-opacity:1;stroke:#dcdbdc;stroke-width:2.10188866;stroke-linecap:butt;stroke-linejoin:miter;stroke-miterlimit:4;stroke-dasharray:none;stroke-opacity:1;marker-mid:url(#marker1123)" />
  </g>
</svg>
